<?xml version="1.0" standalone="no"?>
<!DOCTYPE svg PUBLIC "-//W3C//DTD SVG 20010904//EN"
 "http://www.w3.org/TR/2001/REC-SVG-20010904/DTD/svg10.dtd">
<svg version="1.0" xmlns="http://www.w3.org/2000/svg"
 width="512.000000pt" height="512.000000pt" viewBox="0 0 512.000000 512.000000"
 preserveAspectRatio="xMidYMid meet">

<g transform="translate(0.000000,512.000000) scale(0.100000,-0.100000)"
fill="#505050" stroke="none">
<path d="M2350 5110 c-309 -24 -623 -112 -915 -255 -1222 -599 -1762 -2050
-1228 -3299 325 -761 998 -1319 1802 -1496 222 -48 336 -59 596 -55 243 3 344
15 575 70 740 177 1394 723 1714 1431 138 306 211 624 223 964 20 598 -156
1152 -521 1640 -81 109 -336 370 -443 453 -218 171 -526 339 -773 420 -150 50
-322 91 -474 113 -126 18 -417 25 -556 14z m413 -1075 c346 -61 593 -248 681
-517 35 -108 49 -250 36 -351 -19 -135 -86 -281 -169 -371 -52 -55 -219 -192
-338 -275 -167 -117 -205 -179 -226 -366 -9 -78 -18 -120 -28 -126 -8 -5 -123
-9 -256 -9 -287 0 -278 -4 -268 99 18 193 54 325 113 417 48 74 162 180 282
264 158 110 173 124 226 194 57 75 94 170 94 239 0 145 -87 288 -210 346 -48
22 -69 26 -155 26 -90 0 -106 -3 -157 -28 -70 -34 -141 -113 -170 -189 -14
-36 -22 -86 -26 -155 l-5 -103 -272 0 c-149 0 -274 2 -276 4 -2 3 -1 60 3 127
9 141 43 292 87 385 131 281 416 423 821 408 69 -2 164 -11 213 -19z m-151
-2343 c109 -53 168 -144 176 -268 2 -41 -1 -94 -7 -120 -26 -101 -116 -196
-215 -227 -23 -6 -77 -12 -122 -11 -246 3 -391 216 -308 456 9 27 36 71 61 98
74 82 146 111 268 107 68 -2 91 -7 147 -35z"/>
</g>
</svg>
