<svg id="Capa_1" data-name="Capa 1" xmlns="http://www.w3.org/2000/svg" viewBox="0 0 190 171"><defs><style>.cls-1{fill:#505050;}</style></defs><path class="cls-1" d="M79.9,55.1h0a9.2,9.2,0,0,0,0,13.3l18,18.1H10.5A9.6,9.6,0,0,0,1,96H1a9.6,9.6,0,0,0,9.5,9.5H97.9l-18,18a9.2,9.2,0,0,0,0,13.3h0a9.1,9.1,0,0,0,13.2,0l34.2-34.1a9.5,9.5,0,0,0,0-13.4L93.1,55.1A9.2,9.2,0,0,0,79.9,55.1ZM172,162.5H105.5A9.6,9.6,0,0,0,96,172h0a9.6,9.6,0,0,0,9.5,9.5H172a19,19,0,0,0,19-19V29.5a19.1,19.1,0,0,0-19-19H105.5A9.6,9.6,0,0,0,96,20h0a9.6,9.6,0,0,0,9.5,9.5H172Z" transform="translate(-1 -10.5)"/></svg>