<svg id="Capa_1" data-name="Capa 1" xmlns="http://www.w3.org/2000/svg" viewBox="0 0 190 190"><defs><style>.cls-1{fill:#505050;}</style></defs><path class="cls-1" d="M79.4,105.5A11.9,11.9,0,1,1,67.5,93.6,11.9,11.9,0,0,1,79.4,105.5Zm45.1-11.9a11.9,11.9,0,1,0,11.9,11.9A11.9,11.9,0,0,0,124.5,93.6ZM191,96A95,95,0,1,1,96,1,95.1,95.1,0,0,1,191,96Zm-19,0a75.1,75.1,0,0,0-3.1-21.3A100,100,0,0,1,148.3,77,95.1,95.1,0,0,1,74.5,41.9,94.7,94.7,0,0,1,20,94.7,5.6,5.6,0,0,1,20,96a76,76,0,0,0,152,0Z" transform="translate(-1 -1)"/></svg>