<?xml version="1.0" standalone="no"?>
<!DOCTYPE svg PUBLIC "-//W3C//DTD SVG 20010904//EN"
 "http://www.w3.org/TR/2001/REC-SVG-20010904/DTD/svg10.dtd">
<svg version="1.0" xmlns="http://www.w3.org/2000/svg"
 width="512.000000pt" height="512.000000pt" viewBox="0 0 512.000000 512.000000"
 preserveAspectRatio="xMidYMid meet">

<g transform="translate(0.000000,512.000000) scale(0.100000,-0.100000)"
fill="#505050" stroke="none">
<path d="M1510 5022 c-94 -32 -131 -57 -245 -163 -195 -184 -250 -285 -248
-459 1 -117 26 -201 83 -274 8 -11 362 -367 786 -792 l771 -772 -755 -754
c-415 -414 -766 -769 -781 -788 -14 -19 -28 -37 -31 -40 -45 -40 -85 -197 -75
-295 17 -165 51 -223 239 -409 158 -156 241 -196 406 -196 81 0 208 35 240 65
14 14 30 25 34 25 9 0 2057 2049 2089 2089 60 75 93 210 84 341 -9 122 -32
191 -87 265 -26 35 -2084 2089 -2113 2110 -85 60 -287 83 -397 47z"/>
</g>
</svg>
